<svg xmlns="http://www.w3.org/2000/svg" viewBox="0 -6 200 214"><defs><filter id="h"><feTurbulence type="fractalNoise" baseFrequency=".05" numOctaves="2" seed="7"/><feDisplacementMap in="SourceGraphic" scale="4"/></filter></defs><g filter="url(#h)"><g transform="translate(70 196) rotate(28)"><path d="M-20 -170L20 -170Q24 -110 6 -92L4 -30Q20 -12 30 -6L-30 -6Q-20 -12 -4 -30L-6 -92Q-24 -110 -20 -170Z" fill="#000"/></g><g transform="translate(130 196) rotate(-28)"><path d="M-20 -170L20 -170Q24 -110 6 -92L4 -30Q20 -12 30 -6L-30 -6Q-20 -12 -4 -30L-6 -92Q-24 -110 -20 -170Z" fill="#000"/></g><circle cx="96" cy="40" r="5" fill="none" stroke="#000" stroke-width="3"/><circle cx="106" cy="24" r="4" fill="none" stroke="#000" stroke-width="3"/><circle cx="98" cy="10" r="3" fill="none" stroke="#000" stroke-width="3"/></g></svg>