<svg xmlns="http://www.w3.org/2000/svg" viewBox="0 0 200 210"><path d="M68 192L76 100H124L132 192Z" fill="none" stroke="#000" stroke-width="7" stroke-linecap="round" stroke-linejoin="round"/><path d="M72 100L100 72L128 100" fill="none" stroke="#000" stroke-width="7" stroke-linecap="round" stroke-linejoin="round"/><path d="M92 192V164Q100 154 108 164V192" fill="none" stroke="#000" stroke-width="5" stroke-linecap="round" stroke-linejoin="round"/><circle cx="100" cy="86" r="5" fill="#000"/><g transform="rotate(0 100 86)"><path d="M100 86V26" fill="none" stroke="#000" stroke-width="4" stroke-linecap="round" stroke-linejoin="round"/><path d="M102 30L126 38L102 66Z" fill="#000"/></g><g transform="rotate(90 100 86)"><path d="M100 86V26" fill="none" stroke="#000" stroke-width="4" stroke-linecap="round" stroke-linejoin="round"/><path d="M102 30L126 38L102 66Z" fill="#000"/></g><g transform="rotate(180 100 86)"><path d="M100 86V26" fill="none" stroke="#000" stroke-width="4" stroke-linecap="round" stroke-linejoin="round"/><path d="M102 30L126 38L102 66Z" fill="#000"/></g><g transform="rotate(270 100 86)"><path d="M100 86V26" fill="none" stroke="#000" stroke-width="4" stroke-linecap="round" stroke-linejoin="round"/><path d="M102 30L126 38L102 66Z" fill="#000"/></g></svg>